<!DOCTYPE svg PUBLIC "-//W3C//DTD SVG 20010904//EN" "http://www.w3.org/TR/2001/REC-SVG-20010904/DTD/svg10.dtd">
<svg version="1.0" xmlns="http://www.w3.org/2000/svg" width="80px" height="80px" viewBox="0 0 800 800" preserveAspectRatio="xMidYMid meet">
<g id="layer101" fill="#7d5237" stroke="none">
 <path d="M256 756 c-105 -44 -177 -118 -216 -223 -18 -47 -21 -74 -18 -148 3 -78 8 -100 35 -156 39 -79 102 -140 181 -177 50 -24 69 -27 162 -27 93 0 112 3 162 27 79 37 142 98 181 177 30 61 32 72 32 171 0 99 -2 110 -32 171 -39 79 -102 140 -181 177 -47 22 -74 27 -152 30 -82 2 -103 -1 -154 -22z"/>
 </g>
<g id="layer102" fill="#a06d4b" stroke="none">
 <path d="M256 756 c-105 -44 -177 -118 -216 -223 -18 -47 -21 -74 -18 -148 3 -78 8 -100 35 -156 39 -79 102 -140 181 -177 50 -24 69 -27 162 -27 93 0 112 3 162 27 79 37 142 98 181 177 30 61 32 72 32 171 0 99 -2 110 -32 171 -39 79 -102 140 -181 177 -47 22 -74 27 -152 30 -82 2 -103 -1 -154 -22z m-7 -318 c-1 -39 -2 -41 -8 -13 -4 17 -5 36 -3 43 8 23 12 12 11 -30z m312 -10 c-3 -62 -11 -60 -11 2 0 29 3 50 7 46 4 -3 6 -25 4 -48z"/>
 </g>
<g id="layer103" fill="#ab8e5f" stroke="none">
 <path d="M256 756 c-105 -44 -177 -118 -216 -223 -18 -47 -21 -74 -18 -148 3 -78 8 -100 35 -156 39 -79 102 -140 181 -177 50 -24 69 -27 162 -27 93 0 112 3 162 27 79 37 142 98 181 177 30 61 32 72 32 171 0 99 -2 110 -32 171 -39 79 -102 140 -181 177 -47 22 -74 27 -152 30 -82 2 -103 -1 -154 -22z m17 -380 c12 -8 47 -17 77 -20 30 -4 77 -14 104 -24 l48 -17 24 28 c21 24 24 39 25 105 l0 77 15 -50 c48 -163 35 -243 -42 -268 -16 -6 -35 -18 -42 -28 -18 -26 -78 -42 -125 -35 -82 13 -140 71 -152 151 -6 38 -1 71 27 179 l13 49 3 -66 c2 -57 6 -69 25 -81z"/>
 </g>
<g id="layer104" fill="#bba691" stroke="none">
 <path d="M256 756 c-105 -44 -177 -118 -216 -223 -18 -47 -21 -74 -18 -148 3 -78 8 -100 35 -156 39 -79 102 -140 181 -177 50 -24 69 -27 162 -27 93 0 112 3 162 27 79 37 142 98 181 177 30 61 32 72 32 171 0 99 -2 110 -32 171 -39 79 -102 140 -181 177 -47 22 -74 27 -152 30 -82 2 -103 -1 -154 -22z m184 -92 c15 -10 17 -13 5 -8 -11 4 -31 8 -45 8 -14 0 -34 -4 -45 -8 -12 -5 -10 -2 5 8 14 8 32 15 40 15 8 0 26 -7 40 -15z m-125 -30 c-11 -8 -28 -25 -38 -37 l-18 -22 10 22 c6 12 21 29 33 37 29 20 40 20 13 0z m213 -35 l14 -24 -18 22 c-11 12 -28 30 -39 39 -19 15 -19 16 4 2 14 -8 31 -25 39 -39z m-256 -223 c10 -7 47 -16 83 -19 35 -3 78 -13 94 -22 40 -20 48 -19 76 10 23 22 25 33 26 112 1 48 4 79 6 69 3 -11 11 -26 19 -33 19 -20 29 -62 16 -75 -6 -6 -7 -21 -1 -41 22 -76 -4 -146 -64 -173 -17 -8 -43 -23 -57 -34 -81 -65 -231 -10 -259 96 -11 42 -9 187 4 217 4 9 11 17 16 17 5 0 10 10 11 23 1 12 4 -13 7 -56 4 -59 10 -82 23 -91z"/>
 <path d="M221 472 c-6 -12 -11 -27 -11 -34 1 -7 8 0 16 15 9 16 13 31 11 34 -3 2 -10 -4 -16 -15z"/>
 <path d="M560 489 c0 -4 7 -22 15 -40 10 -25 14 -29 15 -13 0 17 -29 70 -30 53z"/>
 </g>
<g id="layer105" fill="#f3cc83" stroke="none">
 <path d="M317 760 c-108 -28 -202 -106 -251 -210 -27 -57 -31 -76 -31 -150 0 -74 4 -93 31 -150 39 -83 101 -145 184 -184 57 -27 76 -31 150 -31 74 0 93 4 150 31 83 39 145 101 184 184 27 57 31 76 31 150 0 74 -4 93 -31 150 -60 126 -177 207 -311 215 -37 2 -85 0 -106 -5z m136 -96 c59 -30 107 -88 107 -129 0 -9 8 -27 18 -40 14 -18 18 -43 20 -122 2 -113 -15 -157 -65 -169 -15 -4 -43 -20 -61 -36 -57 -49 -164 -35 -224 28 -40 43 -48 75 -46 180 1 76 5 100 20 119 10 13 18 31 18 40 0 57 95 143 158 145 13 0 37 -7 55 -16z"/>
 <path d="M342 648 c-66 -32 -86 -68 -90 -165 -5 -103 6 -117 100 -126 36 -3 81 -14 101 -23 33 -16 37 -16 61 0 33 21 39 47 35 148 -5 99 -24 134 -94 167 -54 25 -59 25 -113 -1z"/>
 <path d="M221 472 c-6 -12 -11 -27 -11 -34 1 -7 8 0 16 15 9 16 13 31 11 34 -3 2 -10 -4 -16 -15z"/>
 <path d="M560 489 c0 -4 7 -22 15 -40 10 -25 14 -29 15 -13 0 17 -29 70 -30 53z"/>
 </g>
<g id="layer106" fill="#fefefe" stroke="none">
 <path d="M317 760 c-108 -28 -202 -106 -251 -210 -27 -57 -31 -76 -31 -150 0 -74 4 -93 31 -150 39 -83 101 -145 184 -184 57 -27 76 -31 150 -31 74 0 93 4 150 31 83 39 145 101 184 184 27 57 31 76 31 150 0 74 -4 93 -31 150 -60 126 -177 207 -311 215 -37 2 -85 0 -106 -5z m136 -96 c59 -30 107 -88 107 -129 0 -9 8 -27 18 -40 14 -18 18 -43 20 -122 2 -113 -15 -157 -65 -169 -15 -4 -43 -20 -61 -36 -57 -49 -164 -35 -224 28 -40 43 -48 75 -46 180 1 76 5 100 20 119 10 13 18 31 18 40 0 57 95 143 158 145 13 0 37 -7 55 -16z"/>
 </g>

</svg>