<!DOCTYPE svg PUBLIC "-//W3C//DTD SVG 20010904//EN" "http://www.w3.org/TR/2001/REC-SVG-20010904/DTD/svg10.dtd">
<svg version="1.0" xmlns="http://www.w3.org/2000/svg" width="80px" height="80px" viewBox="0 0 800 800" preserveAspectRatio="xMidYMid meet">
<g id="layer101" fill="#b98966" stroke="none">
 <path d="M256 756 c-105 -44 -177 -118 -216 -223 -18 -47 -21 -74 -18 -148 3 -78 8 -100 35 -156 39 -79 102 -140 181 -177 50 -24 69 -27 162 -27 93 0 112 3 162 27 79 37 142 98 181 177 30 61 32 72 32 171 0 99 -2 110 -32 171 -39 79 -102 140 -181 177 -47 22 -74 27 -152 30 -82 2 -103 -1 -154 -22z"/>
 </g>
<g id="layer102" fill="#dec47a" stroke="none">
 <path d="M293 756 c-104 -34 -185 -106 -232 -205 -22 -48 -26 -69 -26 -151 0 -87 3 -101 32 -161 39 -79 102 -140 181 -177 49 -23 70 -27 152 -27 82 0 103 4 152 27 79 37 142 98 181 177 29 60 32 74 32 161 0 87 -3 101 -32 161 -63 128 -176 200 -318 206 -49 2 -96 -3 -122 -11z m130 -123 c3 -5 -8 -8 -23 -8 -15 0 -26 3 -23 8 2 4 13 7 23 7 10 0 21 -3 23 -7z m-105 -16 l39 -1 -30 -25 c-54 -45 -74 -130 -39 -169 9 -11 43 -28 74 -36 32 -9 73 -30 93 -47 l34 -31 21 34 c14 24 20 50 20 96 0 76 -17 119 -61 157 -19 16 -27 26 -18 23 8 -3 35 -2 60 2 43 9 98 0 128 -19 11 -7 9 -15 -13 -43 -29 -39 -31 -54 -15 -143 7 -34 9 -78 5 -98 -9 -46 -50 -96 -96 -114 -19 -8 -44 -24 -56 -34 -52 -48 -155 -29 -218 41 -51 56 -61 105 -47 212 13 89 10 109 -26 149 -12 14 -11 18 1 28 20 17 67 30 88 25 9 -3 34 -6 56 -7z"/>
 <path d="M221 609 c-17 -4 -34 -9 -37 -12 -3 -3 5 -23 17 -45 22 -38 23 -42 10 -120 -11 -65 -11 -91 -1 -132 27 -113 154 -183 235 -130 35 23 49 31 90 53 67 35 80 86 61 237 -8 62 -7 67 18 97 25 30 26 33 9 41 -20 11 -50 15 -106 13 l-38 -1 28 -37 c24 -31 28 -47 32 -117 2 -62 -1 -87 -14 -112 -25 -46 -42 -49 -81 -14 -19 16 -59 37 -90 46 -80 23 -97 43 -92 109 3 38 12 64 31 88 l26 35 -32 4 c-19 2 -48 1 -66 -3z"/>
 </g>
<g id="layer103" fill="#fbcf9d" stroke="none">
 <path d="M293 756 c-104 -34 -185 -106 -232 -205 -22 -48 -26 -69 -26 -151 0 -87 3 -101 32 -161 39 -79 102 -140 181 -177 49 -23 70 -27 152 -27 82 0 103 4 152 27 79 37 142 98 181 177 29 60 32 74 32 161 0 87 -3 101 -32 161 -63 128 -176 200 -318 206 -49 2 -96 -3 -122 -11z m145 -130 c20 -10 39 -12 72 -6 44 9 99 0 129 -19 11 -7 9 -15 -13 -43 -29 -39 -31 -54 -15 -143 7 -34 9 -78 5 -98 -9 -46 -50 -96 -96 -114 -19 -8 -44 -24 -56 -34 -52 -48 -155 -29 -218 41 -51 56 -61 105 -47 212 11 75 10 90 -3 117 -9 16 -21 33 -26 36 -17 10 7 33 45 44 18 5 52 5 76 1 31 -6 51 -4 69 6 32 17 45 17 78 0z"/>
 <path d="M357 609 c-59 -31 -99 -114 -82 -168 7 -24 44 -45 95 -55 19 -3 51 -20 72 -36 20 -17 42 -30 48 -30 18 0 40 66 40 123 0 72 -32 135 -85 164 -48 27 -41 27 -88 2z"/>
 <path d="M221 609 c-17 -4 -34 -9 -37 -12 -3 -3 5 -23 17 -45 22 -38 23 -42 10 -120 -11 -65 -11 -91 -1 -132 27 -113 154 -183 235 -130 35 23 49 31 90 53 67 35 80 86 61 237 -8 62 -7 67 18 97 25 30 26 33 9 41 -20 11 -50 15 -106 13 l-38 -1 28 -37 c24 -31 28 -47 32 -117 2 -62 -1 -87 -14 -112 -25 -46 -42 -49 -81 -14 -19 16 -59 37 -90 46 -80 23 -97 43 -92 109 3 38 12 64 31 88 l26 35 -32 4 c-19 2 -48 1 -66 -3z"/>
 </g>
<g id="layer104" fill="#fefefe" stroke="none">
 <path d="M317 760 c-110 -28 -201 -103 -250 -208 -28 -59 -32 -77 -32 -152 0 -75 4 -93 32 -152 39 -84 97 -142 181 -181 59 -28 77 -32 152 -32 75 0 93 4 152 32 84 39 142 97 181 181 28 59 32 77 32 152 0 75 -4 93 -32 152 -39 83 -97 142 -178 179 -70 33 -172 45 -238 29z m117 -127 c4 -5 45 -8 90 -8 62 0 88 -4 109 -18 l28 -18 -31 -36 c-30 -33 -31 -39 -23 -82 4 -25 8 -78 8 -118 0 -83 -17 -114 -81 -148 -21 -11 -55 -30 -74 -43 -71 -45 -178 -15 -235 66 -27 39 -30 51 -29 120 0 42 2 100 4 127 4 40 1 56 -18 82 -12 17 -22 33 -22 36 0 3 16 12 36 22 27 13 49 15 98 10 43 -5 66 -3 70 4 8 12 59 15 70 4z"/>
 </g>

</svg>