<!DOCTYPE svg PUBLIC "-//W3C//DTD SVG 20010904//EN" "http://www.w3.org/TR/2001/REC-SVG-20010904/DTD/svg10.dtd">
<svg version="1.0" xmlns="http://www.w3.org/2000/svg" width="80px" height="80px" viewBox="0 0 800 800" preserveAspectRatio="xMidYMid meet">
<g id="layer101" fill="#4d3e40" stroke="none">
 <path d="M256 756 c-105 -44 -177 -118 -216 -223 -18 -47 -21 -74 -18 -148 3 -78 8 -100 35 -156 39 -79 102 -140 181 -177 50 -24 69 -27 162 -27 93 0 112 3 162 27 79 37 142 98 181 177 30 61 32 72 32 171 0 99 -2 110 -32 171 -39 79 -102 140 -181 177 -47 22 -74 27 -152 30 -82 2 -103 -1 -154 -22z"/>
 </g>
<g id="layer102" fill="#694e3c" stroke="none">
 <path d="M256 756 c-105 -44 -177 -118 -216 -223 -18 -47 -21 -74 -18 -148 3 -78 8 -100 35 -156 39 -79 102 -140 181 -177 50 -24 69 -27 162 -27 93 0 112 3 162 27 79 37 142 98 181 177 30 61 32 72 32 171 0 99 -2 110 -32 171 -39 79 -102 140 -181 177 -47 22 -74 27 -152 30 -82 2 -103 -1 -154 -22z m271 -353 c-2 -16 -4 -5 -4 22 0 28 2 40 4 28 2 -13 2 -35 0 -50z"/>
 </g>
<g id="layer103" fill="#6c595c" stroke="none">
 <path d="M256 756 c-105 -44 -177 -118 -216 -223 -18 -47 -21 -74 -18 -148 3 -78 8 -100 35 -156 39 -79 102 -140 181 -177 50 -24 69 -27 162 -27 93 0 112 3 162 27 79 37 142 98 181 177 30 61 32 72 32 171 0 99 -2 110 -32 171 -39 79 -102 140 -181 177 -47 22 -74 27 -152 30 -82 2 -103 -1 -154 -22z m271 -353 c-2 -16 -4 -5 -4 22 0 28 2 40 4 28 2 -13 2 -35 0 -50z"/>
 </g>
<g id="layer104" fill="#ae7f58" stroke="none">
 <path d="M256 756 c-105 -44 -177 -118 -216 -223 -18 -47 -21 -74 -18 -148 3 -78 8 -100 35 -156 39 -79 102 -140 181 -177 50 -24 69 -27 162 -27 93 0 112 3 162 27 79 37 142 98 181 177 30 61 32 72 32 171 0 99 -2 110 -32 171 -39 79 -102 140 -181 177 -47 22 -74 27 -152 30 -82 2 -103 -1 -154 -22z m48 -147 l38 -11 -20 -21 c-28 -29 -42 -70 -42 -118 0 -49 23 -74 77 -82 22 -4 59 -21 83 -38 l44 -32 19 24 c16 20 18 36 15 110 -3 75 -6 90 -31 122 l-27 36 41 11 c50 14 95 7 129 -20 l25 -20 -29 -23 c-29 -23 -29 -24 -20 -93 20 -162 4 -231 -64 -262 -20 -9 -50 -27 -65 -39 -93 -75 -244 -10 -283 122 -15 53 -16 70 -5 142 10 71 9 87 -4 112 -8 16 -19 33 -25 36 -18 11 -10 26 23 40 39 17 70 18 121 4z"/>
 </g>
<g id="layer105" fill="#aca2a0" stroke="none">
 <path d="M256 756 c-105 -44 -177 -118 -216 -223 -18 -47 -21 -74 -18 -148 3 -78 8 -100 35 -156 39 -79 102 -140 181 -177 50 -24 69 -27 162 -27 93 0 112 3 162 27 79 37 142 98 181 177 30 61 32 72 32 171 0 99 -2 110 -32 171 -39 79 -102 140 -181 177 -47 22 -74 27 -152 30 -82 2 -103 -1 -154 -22z m183 -141 c22 -11 37 -12 66 -4 46 13 91 5 125 -20 l25 -20 -28 -25 c-31 -29 -31 -31 -15 -141 18 -124 -10 -199 -82 -220 -14 -4 -34 -15 -45 -25 -63 -58 -168 -49 -236 19 -64 63 -80 161 -52 301 3 17 -4 38 -22 64 -25 38 -26 41 -9 53 27 20 81 26 126 15 32 -8 47 -8 67 3 33 18 46 18 80 0z"/>
 </g>
<g id="layer106" fill="#fdfdfd" stroke="none">
 <path d="M317 760 c-108 -28 -202 -106 -251 -210 -27 -57 -31 -76 -31 -150 0 -74 4 -93 31 -150 39 -83 101 -145 184 -184 57 -27 76 -31 150 -31 74 0 93 4 150 31 83 39 145 101 184 184 27 57 31 76 31 150 0 74 -4 93 -31 150 -60 126 -177 207 -311 215 -37 2 -85 0 -106 -5z m204 -140 c69 1 79 -1 108 -25 l31 -27 -31 -29 c-24 -22 -30 -35 -25 -52 3 -12 9 -61 13 -110 5 -73 3 -94 -12 -128 -17 -37 -57 -69 -86 -69 -6 0 -27 -14 -47 -31 -33 -29 -39 -31 -97 -27 -70 4 -117 30 -154 83 -36 53 -44 100 -36 215 l6 106 -27 27 c-26 27 -27 28 -8 42 27 21 76 28 137 21 30 -4 58 -2 67 4 8 6 31 8 50 4 19 -3 69 -5 111 -4z"/>
 </g>

</svg>