<!DOCTYPE svg PUBLIC "-//W3C//DTD SVG 20010904//EN" "http://www.w3.org/TR/2001/REC-SVG-20010904/DTD/svg10.dtd">
<svg version="1.0" xmlns="http://www.w3.org/2000/svg" width="80px" height="80px" viewBox="0 0 800 800" preserveAspectRatio="xMidYMid meet">
<g id="layer101" fill="#987c47" stroke="none">
 <path d="M256 756 c-105 -44 -177 -118 -216 -223 -18 -47 -21 -74 -18 -148 3 -78 8 -100 35 -156 39 -79 102 -140 181 -177 50 -24 69 -27 162 -27 93 0 112 3 162 27 79 37 142 98 181 177 30 61 32 72 32 171 0 99 -2 110 -32 171 -39 79 -102 140 -181 177 -47 22 -74 27 -152 30 -82 2 -103 -1 -154 -22z"/>
 </g>
<g id="layer102" fill="#bba77f" stroke="none">
 <path d="M256 756 c-105 -44 -177 -118 -216 -223 -18 -47 -21 -74 -18 -148 3 -78 8 -100 35 -156 39 -79 102 -140 181 -177 50 -24 69 -27 162 -27 93 0 112 3 162 27 79 37 142 98 181 177 30 61 32 72 32 171 0 99 -2 110 -32 171 -39 79 -102 140 -181 177 -47 22 -74 27 -152 30 -82 2 -103 -1 -154 -22z m-7 -298 c-1 -46 -3 -55 -8 -33 -6 29 -3 95 5 95 2 0 3 -28 3 -62z m312 -8 c0 -34 -2 -65 -5 -68 -4 -3 -6 28 -6 68 0 40 3 71 6 68 3 -4 5 -34 5 -68z"/>
 </g>
<g id="layer103" fill="#f1cd8b" stroke="none">
 <path d="M317 760 c-110 -28 -201 -103 -250 -208 -28 -59 -32 -77 -32 -152 0 -75 4 -93 32 -152 39 -84 97 -142 181 -181 59 -28 77 -32 152 -32 75 0 93 4 152 32 84 39 142 97 181 181 28 59 32 77 32 152 0 75 -4 93 -32 152 -39 83 -97 142 -178 179 -70 33 -172 45 -238 29z m140 -100 c50 -24 89 -69 98 -112 4 -18 14 -41 23 -51 12 -13 17 -44 19 -119 3 -114 -9 -149 -61 -169 -17 -7 -43 -23 -58 -37 -61 -56 -185 -33 -244 44 -28 36 -29 43 -30 146 -2 88 1 112 15 131 10 12 22 40 29 62 12 43 48 83 97 108 41 21 65 20 112 -3z"/>
 <path d="M342 648 c-67 -33 -86 -68 -90 -168 -4 -97 6 -115 68 -123 l35 -4 -36 -1 c-19 -1 -43 4 -53 11 -20 15 -37 82 -29 117 5 24 5 25 -10 5 -9 -11 -16 -31 -17 -45 0 -20 2 -22 11 -10 8 12 9 9 4 -10 -3 -14 -8 -50 -11 -80 -10 -106 66 -190 171 -190 40 0 105 31 105 50 0 5 9 10 19 10 11 0 33 11 48 24 25 21 28 31 28 83 0 32 -4 74 -8 93 -6 25 -5 31 2 20 9 -12 11 -10 11 11 0 15 -7 32 -16 40 -13 11 -15 9 -13 -12 6 -62 -2 -99 -27 -128 -28 -34 -56 -38 -94 -15 -16 10 -18 13 -5 8 53 -19 72 -16 94 13 21 25 22 37 19 123 -4 112 -21 145 -93 179 -54 25 -59 25 -113 -1z"/>
 </g>
<g id="layer104" fill="#fefefe" stroke="none">
 <path d="M317 760 c-110 -28 -201 -103 -250 -208 -28 -59 -32 -77 -32 -152 0 -75 4 -93 32 -152 39 -84 97 -142 181 -181 59 -28 77 -32 152 -32 75 0 93 4 152 32 84 39 142 97 181 181 28 59 32 77 32 152 0 75 -4 93 -32 152 -39 83 -97 142 -178 179 -70 33 -172 45 -238 29z m136 -96 c59 -30 107 -88 107 -129 0 -9 8 -27 19 -40 15 -20 18 -43 19 -121 1 -53 -4 -106 -10 -118 -13 -26 -48 -55 -67 -56 -7 0 -29 -13 -48 -30 -28 -25 -42 -30 -84 -30 -60 0 -105 18 -141 56 -39 43 -47 73 -46 179 1 77 4 101 19 120 11 13 19 31 19 40 0 57 95 143 158 145 13 0 37 -7 55 -16z"/>
 </g>

</svg>