<!DOCTYPE svg PUBLIC "-//W3C//DTD SVG 20010904//EN" "http://www.w3.org/TR/2001/REC-SVG-20010904/DTD/svg10.dtd">
<svg version="1.0" xmlns="http://www.w3.org/2000/svg" width="80px" height="80px" viewBox="0 0 800 800" preserveAspectRatio="xMidYMid meet">
<g id="layer101" fill="#593f33" stroke="none">
 <path d="M256 756 c-105 -44 -177 -118 -216 -223 -18 -47 -21 -74 -18 -148 3 -78 8 -100 35 -156 39 -79 102 -140 181 -177 50 -24 69 -27 162 -27 93 0 112 3 162 27 79 37 142 98 181 177 30 61 32 72 32 171 0 99 -2 110 -32 171 -39 79 -102 140 -181 177 -47 22 -74 27 -152 30 -82 2 -103 -1 -154 -22z"/>
 </g>
<g id="layer102" fill="#7a5b4d" stroke="none">
 <path d="M256 756 c-105 -44 -177 -118 -216 -223 -18 -47 -21 -74 -18 -148 3 -78 8 -100 35 -156 39 -79 102 -140 181 -177 50 -24 69 -27 162 -27 93 0 112 3 162 27 79 37 142 98 181 177 30 61 32 72 32 171 0 99 -2 110 -32 171 -39 79 -102 140 -181 177 -47 22 -74 27 -152 30 -82 2 -103 -1 -154 -22z m-7 -313 c-1 -33 -2 -35 -8 -13 -4 14 -6 31 -3 38 8 22 12 13 11 -25z m308 -30 c-2 -16 -4 -5 -4 22 0 28 2 40 4 28 2 -13 2 -35 0 -50z"/>
 </g>
<g id="layer103" fill="#8b6c3f" stroke="none">
 <path d="M256 756 c-105 -44 -177 -118 -216 -223 -18 -47 -21 -74 -18 -148 3 -78 8 -100 35 -156 39 -79 102 -140 181 -177 50 -24 69 -27 162 -27 93 0 112 3 162 27 79 37 142 98 181 177 30 61 32 72 32 171 0 99 -2 110 -32 171 -39 79 -102 140 -181 177 -47 22 -74 27 -152 30 -82 2 -103 -1 -154 -22z m17 -380 c12 -8 47 -17 77 -20 30 -4 77 -14 104 -24 l48 -17 24 28 c19 22 24 40 24 85 1 54 1 56 15 32 7 -14 19 -55 26 -91 11 -60 10 -70 -7 -105 -11 -22 -34 -47 -55 -59 -20 -11 -50 -29 -65 -40 -40 -29 -127 -27 -176 3 -60 37 -83 85 -82 167 1 44 9 85 20 110 l19 40 3 -48 c2 -36 8 -51 25 -61z"/>
 </g>
<g id="layer104" fill="#a3835a" stroke="none">
 <path d="M256 756 c-105 -44 -177 -118 -216 -223 -18 -47 -21 -74 -18 -148 3 -78 8 -100 35 -156 39 -79 102 -140 181 -177 50 -24 69 -27 162 -27 93 0 112 3 162 27 79 37 142 98 181 177 30 61 32 72 32 171 0 99 -2 110 -32 171 -39 79 -102 140 -181 177 -47 22 -74 27 -152 30 -82 2 -103 -1 -154 -22z m17 -380 c12 -7 47 -16 77 -20 30 -3 76 -13 103 -23 l49 -18 24 28 c21 24 24 39 25 105 l0 77 15 -50 c48 -167 40 -226 -37 -270 -20 -11 -48 -28 -62 -38 -86 -62 -228 -3 -258 105 -11 44 -6 93 23 202 l13 49 3 -66 c2 -57 6 -69 25 -81z"/>
 </g>
<g id="layer105" fill="#b2a192" stroke="none">
 <path d="M256 756 c-105 -44 -177 -118 -216 -223 -18 -47 -21 -74 -18 -148 3 -78 8 -100 35 -156 39 -79 102 -140 181 -177 50 -24 69 -27 162 -27 93 0 112 3 162 27 79 37 142 98 181 177 30 61 32 72 32 171 0 99 -2 110 -32 171 -39 79 -102 140 -181 177 -47 22 -74 27 -152 30 -82 2 -103 -1 -154 -22z m205 -101 c51 -27 83 -66 95 -119 3 -16 15 -38 25 -50 20 -21 25 -61 10 -70 -6 -4 -5 -21 1 -43 21 -77 -4 -141 -67 -169 -16 -8 -41 -23 -55 -34 -50 -40 -146 -35 -204 11 -50 39 -66 86 -63 193 2 72 6 100 18 115 10 10 20 32 23 48 11 51 44 91 93 117 60 31 63 31 124 1z"/>
 <path d="M355 653 c-74 -38 -105 -90 -105 -175 0 -98 14 -112 115 -121 28 -2 66 -11 87 -21 65 -31 98 10 98 124 0 106 -26 153 -104 191 -46 22 -51 22 -91 2z"/>
 <path d="M219 464 c-5 -15 -8 -29 -5 -31 2 -2 8 10 14 26 13 38 5 41 -9 5z"/>
 <path d="M572 459 c6 -16 12 -28 14 -26 5 5 -13 57 -20 57 -3 0 0 -14 6 -31z"/>
 </g>
<g id="layer106" fill="#d5aa70" stroke="none">
 <path d="M285 753 c-102 -37 -182 -111 -228 -210 -18 -39 -22 -66 -22 -143 0 -82 4 -103 27 -152 34 -74 112 -152 186 -186 49 -23 70 -27 152 -27 82 0 103 4 152 27 74 34 146 107 184 183 26 54 29 70 29 155 0 85 -3 101 -29 155 -38 76 -105 143 -180 180 -76 37 -195 45 -271 18z m171 -94 c50 -24 89 -68 100 -114 4 -16 15 -41 24 -55 14 -20 17 -46 16 -127 -1 -93 -3 -104 -25 -127 -13 -14 -34 -28 -45 -32 -12 -3 -33 -18 -48 -31 -48 -45 -149 -41 -213 9 -49 38 -65 87 -63 190 1 68 6 100 18 118 10 14 20 39 24 55 11 45 50 90 98 113 54 26 59 26 114 1z"/>
 <path d="M355 653 c-74 -38 -105 -90 -105 -175 0 -98 14 -112 115 -121 28 -2 66 -11 87 -21 65 -31 98 10 98 124 0 106 -26 153 -104 191 -46 22 -51 22 -91 2z"/>
 <path d="M219 464 c-5 -15 -8 -29 -5 -31 2 -2 8 10 14 26 13 38 5 41 -9 5z"/>
 <path d="M572 459 c6 -16 12 -28 14 -26 5 5 -13 57 -20 57 -3 0 0 -14 6 -31z"/>
 </g>
<g id="layer107" fill="#cbc3bf" stroke="none">
 <path d="M285 753 c-102 -37 -182 -111 -228 -210 -18 -39 -22 -66 -22 -143 0 -82 4 -103 27 -152 34 -74 112 -152 186 -186 49 -23 70 -27 152 -27 82 0 103 4 152 27 74 34 146 107 184 183 26 54 29 70 29 155 0 85 -3 101 -29 155 -38 76 -105 143 -180 180 -76 37 -195 45 -271 18z m172 -93 c50 -24 89 -69 98 -112 4 -18 15 -43 25 -55 14 -18 17 -42 16 -127 -1 -96 -3 -107 -25 -130 -13 -14 -34 -28 -45 -32 -12 -3 -33 -18 -48 -31 -48 -45 -149 -41 -213 9 -49 38 -65 86 -63 193 1 72 6 103 18 119 9 11 21 39 28 61 12 43 48 83 97 108 41 21 65 20 112 -3z"/>
 </g>
<g id="layer108" fill="#fefefe" stroke="none">
 <path d="M315 756 c-72 -18 -124 -48 -176 -103 -86 -89 -122 -202 -99 -315 31 -159 139 -267 298 -298 113 -23 226 13 315 99 90 86 130 207 107 323 -16 82 -42 132 -99 191 -53 56 -114 90 -189 106 -65 13 -92 13 -157 -3z m138 -92 c59 -30 107 -88 107 -129 0 -9 8 -27 19 -40 15 -19 18 -43 19 -122 2 -116 -16 -159 -69 -170 -17 -3 -33 -12 -36 -20 -14 -37 -118 -56 -180 -32 -38 14 -82 57 -99 97 -9 22 -13 68 -13 128 1 76 5 99 20 118 11 13 19 32 19 41 0 57 95 143 158 145 13 0 37 -7 55 -16z"/>
 </g>

</svg>