<!DOCTYPE svg PUBLIC "-//W3C//DTD SVG 20010904//EN" "http://www.w3.org/TR/2001/REC-SVG-20010904/DTD/svg10.dtd">
<svg version="1.0" xmlns="http://www.w3.org/2000/svg" width="80px" height="80px" viewBox="0 0 800 800" preserveAspectRatio="xMidYMid meet">
<g id="layer101" fill="#7d5237" stroke="none">
 <path d="M256 756 c-105 -44 -177 -118 -216 -223 -18 -47 -21 -74 -18 -148 3 -78 8 -100 35 -156 39 -79 102 -140 181 -177 50 -24 69 -27 162 -27 93 0 112 3 162 27 79 37 142 98 181 177 30 61 32 72 32 171 0 99 -2 110 -32 171 -39 79 -102 140 -181 177 -47 22 -74 27 -152 30 -82 2 -103 -1 -154 -22z"/>
 </g>
<g id="layer102" fill="#9f6d4b" stroke="none">
 <path d="M256 756 c-105 -44 -177 -118 -216 -223 -18 -47 -21 -74 -18 -148 3 -78 8 -100 35 -156 39 -79 102 -140 181 -177 50 -24 69 -27 162 -27 93 0 112 3 162 27 79 37 142 98 181 177 30 61 32 72 32 171 0 99 -2 110 -32 171 -39 79 -102 140 -181 177 -47 22 -74 27 -152 30 -82 2 -103 -1 -154 -22z m21 -313 c-3 -10 -5 -2 -5 17 0 19 2 27 5 18 2 -10 2 -26 0 -35z m250 -45 c-2 -18 -4 -4 -4 32 0 36 2 50 4 33 2 -18 2 -48 0 -65z"/>
 </g>
<g id="layer103" fill="#bca597" stroke="none">
 <path d="M256 756 c-105 -44 -177 -118 -216 -223 -18 -47 -21 -74 -18 -148 3 -78 8 -100 35 -156 39 -79 102 -140 181 -177 50 -24 69 -27 162 -27 93 0 112 3 162 27 79 37 142 98 181 177 30 61 32 72 32 171 0 99 -2 110 -32 171 -39 79 -102 140 -181 177 -47 22 -74 27 -152 30 -82 2 -103 -1 -154 -22z m82 -148 l22 0 -24 -19 c-52 -41 -75 -149 -38 -182 10 -9 40 -23 66 -31 26 -8 63 -26 82 -41 33 -25 37 -26 52 -11 21 21 29 141 12 190 -6 20 -22 49 -35 64 -20 23 -21 28 -7 29 10 0 38 4 64 8 39 6 52 4 82 -15 41 -25 44 -35 17 -50 -30 -15 -34 -43 -20 -139 19 -131 -8 -205 -81 -226 -14 -4 -34 -15 -45 -25 -81 -75 -220 -37 -277 74 -23 45 -30 143 -15 227 7 39 4 50 -18 83 -14 20 -25 39 -25 42 0 17 70 34 115 28 28 -3 60 -6 73 -6z"/>
 </g>
<g id="layer104" fill="#f5ce86" stroke="none">
 <path d="M317 760 c-108 -28 -202 -106 -251 -210 -27 -57 -31 -76 -31 -150 0 -74 4 -93 31 -150 39 -83 101 -145 184 -184 57 -27 76 -31 150 -31 74 0 93 4 150 31 83 39 145 101 184 184 27 57 31 76 31 150 0 74 -4 93 -31 150 -60 126 -177 207 -311 215 -37 2 -85 0 -106 -5z m118 -140 c4 -6 -5 -8 -22 -4 -60 12 -133 -71 -133 -152 0 -49 18 -68 84 -88 26 -8 63 -26 82 -41 33 -25 37 -26 52 -11 21 21 29 141 12 190 -6 20 -22 49 -36 65 l-24 28 38 7 c74 12 109 7 141 -20 l31 -26 -31 -29 c-25 -23 -30 -35 -25 -57 3 -15 9 -62 12 -104 8 -95 -12 -160 -56 -183 -16 -8 -34 -15 -41 -15 -6 0 -27 -14 -47 -31 -33 -29 -39 -31 -97 -27 -70 4 -117 30 -154 83 -36 53 -44 100 -36 216 6 104 6 106 -19 130 -14 13 -26 27 -26 30 0 4 16 15 37 24 29 14 51 16 109 11 46 -4 75 -3 79 4 8 13 62 13 70 0z"/>
 </g>
<g id="layer105" fill="#fdfdfd" stroke="none">
 <path d="M317 760 c-108 -28 -202 -106 -251 -210 -27 -57 -31 -76 -31 -150 0 -74 4 -93 31 -150 39 -83 101 -145 184 -184 57 -27 76 -31 150 -31 74 0 93 4 150 31 83 39 145 101 184 184 27 57 31 76 31 150 0 74 -4 93 -31 150 -60 126 -177 207 -311 215 -37 2 -85 0 -106 -5z m118 -140 c4 -7 35 -8 83 -4 74 6 79 5 110 -21 l32 -27 -31 -29 c-25 -23 -30 -35 -25 -57 3 -15 9 -62 12 -104 8 -95 -12 -160 -56 -183 -16 -8 -34 -15 -41 -15 -6 0 -27 -14 -47 -31 -33 -29 -39 -31 -97 -27 -70 4 -117 30 -154 83 -36 53 -44 100 -36 216 6 104 6 106 -19 130 -14 13 -26 27 -26 30 0 4 16 15 37 24 29 14 51 16 109 11 46 -4 75 -3 79 4 8 13 62 13 70 0z"/>
 </g>

</svg>