<!DOCTYPE svg PUBLIC "-//W3C//DTD SVG 20010904//EN" "http://www.w3.org/TR/2001/REC-SVG-20010904/DTD/svg10.dtd">
<svg version="1.0" xmlns="http://www.w3.org/2000/svg" width="80px" height="80px" viewBox="0 0 800 800" preserveAspectRatio="xMidYMid meet">
<g id="layer101" fill="#748599" stroke="none">
 <path d="M256 756 c-105 -44 -177 -118 -216 -223 -18 -47 -21 -74 -18 -148 3 -78 8 -100 35 -156 39 -79 102 -140 181 -177 50 -24 69 -27 162 -27 93 0 112 3 162 27 79 37 142 98 181 177 30 61 32 72 32 171 0 99 -2 110 -32 171 -39 79 -102 140 -181 177 -47 22 -74 27 -152 30 -82 2 -103 -1 -154 -22z"/>
 </g>
<g id="layer102" fill="#93a1ad" stroke="none">
 <path d="M288 757 c-100 -38 -175 -104 -225 -199 -25 -48 -28 -62 -28 -158 0 -99 2 -109 32 -165 38 -73 99 -133 173 -171 50 -27 64 -29 160 -29 96 0 110 2 160 29 74 38 135 98 173 171 30 56 32 66 32 165 0 100 -1 108 -34 168 -40 73 -98 130 -173 168 -44 23 -69 28 -143 31 -59 2 -103 -1 -127 -10z m-39 -309 c-1 -37 -2 -39 -9 -18 -4 14 -8 19 -9 11 -1 -8 -3 -12 -6 -9 -6 5 15 58 22 58 1 0 3 -19 2 -42z m311 -28 l-7 -45 -1 60 c-1 37 2 54 7 45 5 -8 5 -35 1 -60z m-353 -97 c-3 -10 -5 -2 -5 17 0 19 2 27 5 18 2 -10 2 -26 0 -35z m390 -10 c-3 -10 -5 -2 -5 17 0 19 2 27 5 18 2 -10 2 -26 0 -35z m-144 17 c32 -25 35 -25 66 3 l26 22 -24 -27 c-30 -34 -31 -34 -77 -3 -20 14 -32 25 -27 25 6 0 22 -9 36 -20z m-45 -177 c-10 -2 -26 -2 -35 0 -10 3 -2 5 17 5 19 0 27 -2 18 -5z"/>
 </g>
<g id="layer103" fill="#c8af6a" stroke="none">
 <path d="M283 752 c-101 -36 -180 -109 -225 -208 -19 -40 -23 -66 -23 -144 0 -82 4 -103 27 -152 34 -74 112 -152 186 -186 49 -23 70 -27 152 -27 82 0 103 4 152 27 74 34 152 112 186 186 23 49 27 70 27 152 0 82 -4 103 -27 152 -34 74 -113 152 -186 186 -76 35 -194 41 -269 14z m-8 -368 c10 -8 35 -14 54 -14 44 -1 106 -22 131 -45 24 -22 45 -14 70 27 13 22 20 51 20 87 0 34 4 51 9 45 13 -12 41 -125 41 -160 0 -41 -35 -93 -73 -110 -17 -8 -45 -24 -60 -37 -38 -30 -127 -30 -177 -1 -43 25 -77 74 -86 123 -7 37 5 115 27 166 l13 30 6 -49 c4 -30 13 -54 25 -62z"/>
 <path d="M221 397 c-17 -78 -7 -130 35 -177 58 -64 161 -77 214 -27 14 12 41 30 62 39 51 23 65 71 47 154 l-13 59 -6 -43 c-5 -31 -17 -53 -42 -79 l-36 -35 -21 21 c-28 28 -54 37 -122 46 -66 8 -89 24 -98 67 -7 32 -7 31 -20 -25z"/>
 </g>
<g id="layer104" fill="#afc0d3" stroke="none">
 <path d="M283 752 c-101 -36 -180 -109 -225 -208 -19 -40 -23 -66 -23 -144 0 -82 4 -103 27 -152 34 -74 112 -152 186 -186 49 -23 70 -27 152 -27 82 0 103 4 152 27 74 34 152 112 186 186 23 49 27 70 27 152 0 82 -4 103 -27 152 -34 74 -113 152 -186 186 -76 35 -194 41 -269 14z m169 -101 c44 -19 98 -71 98 -95 0 -7 11 -27 25 -46 25 -34 33 -74 16 -85 -6 -3 -6 -18 0 -38 22 -76 -4 -146 -64 -173 -17 -8 -43 -23 -57 -34 -52 -42 -150 -34 -209 16 -45 38 -61 94 -58 200 2 76 6 95 25 119 12 15 22 33 22 41 0 23 53 76 94 95 52 23 56 23 108 0z"/>
 <path d="M342 638 c-59 -28 -85 -69 -90 -139 -8 -104 7 -122 111 -132 28 -3 63 -15 86 -30 l39 -26 28 30 c28 29 29 35 29 122 0 109 -17 141 -90 176 -54 25 -59 25 -113 -1z"/>
 <path d="M220 479 c-6 -11 -10 -25 -7 -32 2 -6 9 3 15 21 12 36 8 42 -8 11z"/>
 <path d="M572 470 c14 -43 18 -49 18 -24 0 11 -7 29 -15 40 -13 17 -14 16 -3 -16z"/>
 <path d="M221 397 c-17 -78 -7 -130 35 -177 58 -64 161 -77 214 -27 14 12 41 30 62 39 51 23 65 71 47 154 l-13 59 -6 -43 c-5 -31 -17 -53 -42 -79 l-36 -35 -21 21 c-28 28 -54 37 -122 46 -66 8 -89 24 -98 67 -7 32 -7 31 -20 -25z"/>
 </g>
<g id="layer105" fill="#fbeaa0" stroke="none">
 <path d="M315 756 c-71 -18 -124 -48 -174 -97 -178 -178 -126 -481 102 -589 140 -67 306 -39 416 71 84 85 124 209 101 321 -16 82 -42 132 -99 191 -53 56 -114 90 -189 106 -65 13 -92 13 -157 -3z m137 -105 c44 -19 98 -71 98 -95 0 -7 10 -26 23 -43 20 -28 23 -45 25 -129 1 -53 -3 -106 -9 -118 -14 -26 -49 -55 -68 -56 -7 0 -29 -13 -48 -30 -76 -67 -223 -21 -262 83 -6 15 -10 70 -9 123 1 82 4 99 25 126 12 18 23 37 23 44 0 23 53 76 94 95 52 23 56 23 108 0z"/>
 <path d="M342 638 c-59 -28 -85 -69 -90 -139 -8 -104 7 -122 111 -132 28 -3 63 -15 86 -30 l39 -26 28 30 c28 29 29 35 29 122 0 109 -17 141 -90 176 -54 25 -59 25 -113 -1z"/>
 <path d="M220 479 c-6 -11 -10 -25 -7 -32 2 -6 9 3 15 21 12 36 8 42 -8 11z"/>
 <path d="M572 470 c14 -43 18 -49 18 -24 0 11 -7 29 -15 40 -13 17 -14 16 -3 -16z"/>
 </g>
<g id="layer106" fill="#fefefe" stroke="none">
 <path d="M315 756 c-71 -18 -124 -48 -174 -97 -178 -178 -126 -481 102 -589 140 -67 306 -39 416 71 84 85 124 209 101 321 -16 82 -42 132 -99 191 -53 56 -114 90 -189 106 -65 13 -92 13 -157 -3z m144 -106 c42 -21 86 -67 97 -102 4 -13 14 -33 24 -45 13 -17 17 -44 18 -119 1 -53 -4 -106 -10 -118 -13 -26 -48 -55 -67 -56 -7 0 -29 -13 -48 -30 -76 -67 -223 -21 -262 83 -6 15 -10 70 -10 122 1 73 5 100 18 118 10 12 23 36 30 53 21 54 99 113 149 114 12 0 40 -9 61 -20z"/>
 </g>

</svg>