<!DOCTYPE svg PUBLIC "-//W3C//DTD SVG 20010904//EN" "http://www.w3.org/TR/2001/REC-SVG-20010904/DTD/svg10.dtd">
<svg version="1.0" xmlns="http://www.w3.org/2000/svg" width="80px" height="80px" viewBox="0 0 800 800" preserveAspectRatio="xMidYMid meet">
<g id="layer101" fill="#997d47" stroke="none">
 <path d="M256 756 c-105 -44 -177 -118 -216 -223 -18 -47 -21 -74 -18 -148 3 -78 8 -100 35 -156 39 -79 102 -140 181 -177 50 -24 69 -27 162 -27 93 0 112 3 162 27 79 37 142 98 181 177 30 61 32 72 32 171 0 99 -2 110 -32 171 -39 79 -102 140 -181 177 -47 22 -74 27 -152 30 -82 2 -103 -1 -154 -22z"/>
 </g>
<g id="layer102" fill="#bca77e" stroke="none">
 <path d="M256 756 c-105 -44 -177 -118 -216 -223 -18 -47 -21 -74 -18 -148 3 -78 8 -100 35 -156 39 -79 102 -140 181 -177 50 -24 69 -27 162 -27 93 0 112 3 162 27 79 37 142 98 181 177 30 61 32 72 32 171 0 99 -2 110 -32 171 -39 79 -102 140 -181 177 -47 22 -74 27 -152 30 -82 2 -103 -1 -154 -22z m21 -313 c-3 -10 -5 -2 -5 17 0 19 2 27 5 18 2 -10 2 -26 0 -35z m250 -45 c-2 -18 -4 -4 -4 32 0 36 2 50 4 33 2 -18 2 -48 0 -65z"/>
 </g>
<g id="layer103" fill="#f5d08c" stroke="none">
 <path d="M317 760 c-110 -28 -201 -103 -250 -208 -28 -59 -32 -77 -32 -152 0 -75 4 -93 32 -152 39 -84 97 -142 181 -181 59 -28 77 -32 152 -32 75 0 93 4 152 32 84 39 142 97 181 181 28 59 32 77 32 152 0 75 -4 93 -32 152 -39 83 -97 142 -178 179 -70 33 -172 45 -238 29z m119 -141 c4 -7 29 -9 74 -4 69 7 94 1 133 -33 16 -14 16 -17 -13 -41 l-31 -26 12 -95 c7 -52 9 -113 5 -134 -8 -44 -62 -106 -92 -106 -10 0 -30 -12 -45 -26 -55 -52 -158 -42 -230 23 -58 52 -73 109 -64 241 7 106 7 107 -20 136 -14 15 -25 29 -23 31 2 1 18 10 37 20 27 14 48 16 106 10 48 -4 75 -3 80 4 8 14 62 14 71 0z"/>
 <path d="M349 597 c-42 -27 -69 -79 -69 -130 0 -55 14 -75 63 -87 49 -13 127 -56 127 -70 0 -19 16 -10 33 19 24 40 23 163 -1 211 -18 37 -73 80 -102 80 -9 0 -32 -10 -51 -23z"/>
 <path d="M190 599 c-35 -14 -35 -15 -10 -46 21 -26 22 -34 15 -130 -10 -153 19 -227 105 -271 68 -34 160 -24 187 21 4 7 23 18 42 23 55 15 76 53 76 137 0 40 -4 98 -9 129 -8 53 -7 58 17 82 l26 26 -27 21 c-22 17 -37 20 -75 16 -26 -2 -50 -7 -53 -10 -3 -3 5 -20 18 -37 44 -59 36 -236 -12 -265 -6 -4 -26 7 -45 24 -19 17 -60 38 -90 47 -71 20 -89 46 -83 115 3 30 14 62 27 80 13 17 20 33 17 36 -11 11 -101 13 -126 2z"/>
 </g>
<g id="layer104" fill="#fdfdfd" stroke="none">
 <path d="M317 760 c-110 -28 -201 -103 -250 -208 -28 -59 -32 -77 -32 -152 0 -75 4 -93 32 -152 39 -84 97 -142 181 -181 59 -28 77 -32 152 -32 75 0 93 4 152 32 84 39 142 97 181 181 28 59 32 77 32 152 0 75 -4 93 -32 152 -39 83 -97 142 -178 179 -70 33 -172 45 -238 29z m117 -137 c4 -5 45 -8 91 -8 74 0 86 -3 109 -24 l26 -25 -31 -26 -32 -26 12 -65 c15 -87 14 -153 -3 -193 -15 -36 -60 -76 -84 -76 -9 0 -28 -12 -44 -27 -21 -20 -41 -27 -81 -31 -64 -5 -118 18 -165 72 -45 51 -55 102 -47 226 6 104 6 106 -19 133 -14 16 -26 30 -26 31 0 2 16 11 36 21 29 14 51 16 109 10 48 -4 75 -3 80 4 7 12 58 15 69 4z"/>
 </g>

</svg>