<!DOCTYPE svg PUBLIC "-//W3C//DTD SVG 20010904//EN" "http://www.w3.org/TR/2001/REC-SVG-20010904/DTD/svg10.dtd">
<svg version="1.0" xmlns="http://www.w3.org/2000/svg" width="80px" height="80px" viewBox="0 0 800 800" preserveAspectRatio="xMidYMid meet">
<g id="layer101" fill="#593f33" stroke="none">
 <path d="M256 756 c-105 -44 -177 -118 -216 -223 -18 -47 -21 -74 -18 -148 3 -78 8 -100 35 -156 39 -79 102 -140 181 -177 50 -24 69 -27 162 -27 93 0 112 3 162 27 79 37 142 98 181 177 30 61 32 72 32 171 0 99 -2 110 -32 171 -39 79 -102 140 -181 177 -47 22 -74 27 -152 30 -82 2 -103 -1 -154 -22z"/>
 </g>
<g id="layer102" fill="#7a5b4d" stroke="none">
 <path d="M256 756 c-105 -44 -177 -118 -216 -223 -18 -47 -21 -74 -18 -148 3 -78 8 -100 35 -156 39 -79 102 -140 181 -177 50 -24 69 -27 162 -27 93 0 112 3 162 27 79 37 142 98 181 177 30 61 32 72 32 171 0 99 -2 110 -32 171 -39 79 -102 140 -181 177 -47 22 -74 27 -152 30 -82 2 -103 -1 -154 -22z m271 -358 c-2 -18 -4 -6 -4 27 0 33 2 48 4 33 2 -15 2 -42 0 -60z"/>
 </g>
<g id="layer103" fill="#d6aa70" stroke="none">
 <path d="M256 756 c-105 -44 -177 -118 -216 -223 -18 -47 -21 -74 -18 -148 3 -78 8 -100 35 -156 39 -79 102 -140 181 -177 50 -24 69 -27 162 -27 93 0 112 3 162 27 79 37 142 98 181 177 30 61 32 72 32 171 0 99 -2 110 -32 171 -39 79 -102 140 -181 177 -47 22 -74 27 -152 30 -82 2 -103 -1 -154 -22z m47 -147 l37 -10 -26 -35 c-18 -23 -29 -52 -32 -85 -6 -61 12 -85 75 -101 24 -6 62 -24 84 -40 38 -27 43 -28 57 -14 18 17 28 116 18 170 -4 19 -17 50 -31 70 l-24 35 37 11 c20 5 48 10 62 10 25 0 90 -34 90 -46 0 -4 -12 -18 -26 -31 -25 -23 -26 -27 -18 -86 25 -179 6 -240 -86 -277 -14 -5 -36 -19 -50 -30 -52 -42 -150 -34 -210 17 -67 56 -89 147 -67 289 6 45 4 55 -18 88 -14 20 -25 39 -25 42 0 9 65 33 90 34 14 0 42 -5 63 -11z"/>
 </g>
<g id="layer104" fill="#b7aba6" stroke="none">
 <path d="M256 756 c-105 -44 -177 -118 -216 -223 -18 -47 -21 -74 -18 -148 3 -78 8 -100 35 -156 39 -79 102 -140 181 -177 50 -24 69 -27 162 -27 93 0 112 3 162 27 79 37 142 98 181 177 30 61 32 72 32 171 0 99 -2 110 -32 171 -39 79 -102 140 -181 177 -47 22 -74 27 -152 30 -82 2 -103 -1 -154 -22z m187 -140 c18 -12 31 -13 68 -4 53 12 86 7 120 -21 l24 -19 -29 -27 c-28 -26 -28 -28 -20 -88 25 -179 6 -240 -86 -277 -14 -5 -36 -19 -50 -30 -52 -42 -150 -34 -210 17 -67 56 -89 147 -67 289 6 45 4 55 -19 89 -24 37 -25 40 -8 52 28 20 81 26 127 15 33 -9 46 -8 62 3 26 18 60 19 88 1z"/>
 </g>
<g id="layer105" fill="#fdfdfd" stroke="none">
 <path d="M315 756 c-72 -18 -124 -48 -176 -103 -86 -89 -122 -202 -99 -315 31 -159 139 -267 298 -298 113 -23 226 13 315 99 90 86 130 207 107 323 -16 82 -42 132 -99 191 -53 56 -114 90 -189 106 -65 13 -92 13 -157 -3z m133 -141 c16 -12 27 -13 41 -5 38 20 107 12 140 -16 l31 -26 -31 -29 c-24 -22 -30 -35 -25 -52 3 -12 9 -63 12 -113 6 -75 4 -97 -11 -128 -17 -35 -57 -66 -87 -66 -7 0 -24 -12 -37 -25 -29 -31 -58 -39 -121 -33 -70 7 -119 43 -154 112 -28 56 -29 59 -22 170 7 111 6 114 -18 143 -25 30 -25 30 -6 48 25 22 118 32 149 16 17 -10 26 -9 43 4 13 8 34 15 48 15 14 0 35 -7 48 -15z"/>
 </g>

</svg>