<!DOCTYPE svg PUBLIC "-//W3C//DTD SVG 20010904//EN" "http://www.w3.org/TR/2001/REC-SVG-20010904/DTD/svg10.dtd">
<svg version="1.0" xmlns="http://www.w3.org/2000/svg" width="80px" height="80px" viewBox="0 0 800 800" preserveAspectRatio="xMidYMid meet">
<g id="layer101" fill="#aa7555" stroke="none">
 <path d="M256 756 c-105 -44 -177 -118 -216 -223 -18 -47 -21 -74 -18 -148 3 -78 8 -100 35 -156 39 -79 102 -140 181 -177 50 -24 69 -27 162 -27 93 0 112 3 162 27 79 37 142 98 181 177 30 61 32 72 32 171 0 99 -2 110 -32 171 -39 79 -102 140 -181 177 -47 22 -74 27 -152 30 -82 2 -103 -1 -154 -22z"/>
 </g>
<g id="layer102" fill="#c0977d" stroke="none">
 <path d="M256 756 c-105 -44 -177 -118 -216 -223 -18 -47 -21 -74 -18 -148 3 -78 8 -100 35 -156 39 -79 102 -140 181 -177 50 -24 69 -27 162 -27 93 0 112 3 162 27 79 37 142 98 181 177 30 61 32 72 32 171 0 99 -2 110 -32 171 -39 79 -102 140 -181 177 -47 22 -74 27 -152 30 -82 2 -103 -1 -154 -22z m84 -159 c0 -2 -12 -14 -27 -28 l-26 -24 19 27 c16 23 34 36 34 25z m-63 -149 c-2 -13 -4 -5 -4 17 -1 22 1 32 4 23 2 -10 2 -28 0 -40z m250 -55 c-2 -21 -4 -4 -4 37 0 41 2 58 4 38 2 -21 2 -55 0 -75z m90 -70 c-3 -10 -5 -2 -5 17 0 19 2 27 5 18 2 -10 2 -26 0 -35z"/>
 </g>
<g id="layer103" fill="#fbc29b" stroke="none">
 <path d="M314 761 c-105 -27 -201 -106 -250 -206 -26 -54 -29 -70 -29 -155 0 -85 3 -101 29 -155 38 -76 105 -143 181 -181 54 -26 70 -29 155 -29 85 0 101 3 155 29 76 38 144 105 180 181 26 53 29 71 30 155 0 85 -3 101 -29 155 -63 127 -179 204 -315 211 -42 2 -90 0 -107 -5z m124 -145 c22 -11 37 -12 74 -4 53 13 84 7 123 -23 l27 -22 -25 -14 c-36 -18 -41 -44 -27 -134 7 -43 9 -99 6 -124 -8 -53 -45 -101 -85 -110 -16 -3 -37 -15 -46 -25 -42 -46 -143 -50 -207 -7 -73 50 -105 133 -93 242 12 104 10 123 -15 157 -22 30 -22 32 -5 44 28 21 81 27 127 16 32 -8 47 -8 67 3 33 18 46 18 79 1z"/>
 <path d="M349 597 c-43 -28 -69 -80 -69 -134 0 -46 25 -83 58 -83 25 0 114 -44 131 -64 43 -52 73 146 33 224 -18 37 -73 80 -102 80 -9 0 -32 -10 -51 -23z"/>
 <path d="M187 594 c-29 -16 -29 -16 -9 -37 30 -34 33 -54 21 -141 -15 -102 3 -177 55 -229 61 -61 167 -73 217 -23 13 13 36 26 52 30 68 16 96 89 78 206 -16 108 -15 126 14 148 23 18 23 20 7 35 -25 22 -58 29 -101 22 l-39 -6 24 -42 c32 -57 34 -185 4 -234 -11 -18 -23 -33 -26 -33 -4 0 -22 13 -40 30 -19 16 -57 36 -86 45 -74 22 -88 38 -88 99 0 35 8 64 24 92 l24 42 -30 6 c-46 9 -70 7 -101 -10z"/>
 </g>
<g id="layer104" fill="#fefcf5" stroke="none">
 <path d="M317 760 c-110 -28 -201 -103 -250 -208 -73 -154 -22 -351 115 -448 69 -50 132 -69 223 -69 68 0 90 5 147 32 84 39 141 97 181 181 28 59 32 77 32 152 0 75 -4 93 -32 152 -39 83 -97 142 -178 179 -70 33 -172 45 -238 29z m118 -141 c5 -7 33 -8 84 -3 74 6 78 5 109 -21 l33 -28 -32 -26 -32 -27 12 -65 c15 -87 14 -153 -3 -193 -15 -35 -59 -76 -84 -76 -8 0 -30 -13 -49 -30 -85 -75 -249 -4 -284 122 -7 28 -9 79 -4 148 6 104 6 106 -19 133 -14 16 -26 30 -26 31 0 2 16 11 36 21 29 14 51 16 109 10 48 -4 75 -3 80 4 8 14 62 14 70 0z"/>
 <path d="M359 599 c-43 -25 -64 -59 -74 -117 -9 -54 11 -87 57 -97 42 -9 100 -39 117 -59 20 -24 31 -20 48 22 20 49 12 165 -15 202 -18 24 -78 70 -91 70 -3 0 -22 -10 -42 -21z"/>
 </g>

</svg>