<!DOCTYPE svg PUBLIC "-//W3C//DTD SVG 20010904//EN" "http://www.w3.org/TR/2001/REC-SVG-20010904/DTD/svg10.dtd">
<svg version="1.0" xmlns="http://www.w3.org/2000/svg" width="80px" height="80px" viewBox="0 0 800 800" preserveAspectRatio="xMidYMid meet">
<g id="layer101" fill="#4d3e40" stroke="none">
 <path d="M256 756 c-105 -44 -177 -118 -216 -223 -18 -47 -21 -74 -18 -148 3 -78 8 -100 35 -156 39 -79 102 -140 181 -177 50 -24 69 -27 162 -27 93 0 112 3 162 27 79 37 142 98 181 177 30 61 32 72 32 171 0 99 -2 110 -32 171 -39 79 -102 140 -181 177 -47 22 -74 27 -152 30 -82 2 -103 -1 -154 -22z"/>
 </g>
<g id="layer102" fill="#77553b" stroke="none">
 <path d="M256 756 c-105 -44 -177 -118 -216 -223 -18 -47 -21 -74 -18 -148 3 -78 8 -100 35 -156 39 -79 102 -140 181 -177 50 -24 69 -27 162 -27 93 0 112 3 162 27 79 37 142 98 181 177 30 61 32 72 32 171 0 99 -2 110 -32 171 -39 79 -102 140 -181 177 -47 22 -74 27 -152 30 -82 2 -103 -1 -154 -22z m-9 -323 c-3 -10 -5 -2 -5 17 0 19 2 27 5 18 2 -10 2 -26 0 -35z m310 -15 c-2 -13 -4 -3 -4 22 0 25 2 35 4 23 2 -13 2 -33 0 -45z"/>
 </g>
<g id="layer103" fill="#6c595c" stroke="none">
 <path d="M256 756 c-105 -44 -177 -118 -216 -223 -18 -47 -21 -74 -18 -148 3 -78 8 -100 35 -156 39 -79 102 -140 181 -177 50 -24 69 -27 162 -27 93 0 112 3 162 27 79 37 142 98 181 177 30 61 32 72 32 171 0 99 -2 110 -32 171 -39 79 -102 140 -181 177 -47 22 -74 27 -152 30 -82 2 -103 -1 -154 -22z m-7 -283 c-1 -39 -3 -50 -8 -34 -6 24 -3 91 5 91 2 0 4 -26 3 -57z m312 -8 c0 -31 -2 -59 -5 -63 -3 -3 -6 25 -6 63 0 38 3 66 6 63 3 -4 5 -32 5 -63z"/>
 </g>
<g id="layer104" fill="#ae7f58" stroke="none">
 <path d="M256 756 c-105 -44 -177 -118 -216 -223 -18 -47 -21 -74 -18 -148 3 -78 8 -100 35 -156 39 -79 102 -140 181 -177 50 -24 69 -27 162 -27 93 0 112 3 162 27 79 37 142 98 181 177 30 61 32 72 32 171 0 99 -2 110 -32 171 -39 79 -102 140 -181 177 -47 22 -74 27 -152 30 -82 2 -103 -1 -154 -22z m16 -380 c10 -7 47 -16 83 -19 35 -3 78 -13 94 -22 40 -20 48 -19 76 10 22 21 25 33 26 107 1 46 4 72 6 58 2 -14 9 -41 16 -60 42 -130 28 -204 -44 -245 -20 -11 -50 -29 -65 -40 -43 -31 -130 -27 -182 8 -59 38 -77 77 -76 162 1 40 8 86 18 109 9 21 17 50 18 65 1 14 4 -7 7 -47 4 -54 11 -77 23 -86z"/>
 </g>
<g id="layer105" fill="#b1a49e" stroke="none">
 <path d="M256 756 c-105 -44 -177 -118 -216 -223 -18 -47 -21 -74 -18 -148 3 -78 8 -100 35 -156 39 -79 102 -140 181 -177 50 -24 69 -27 162 -27 93 0 112 3 162 27 79 37 142 98 181 177 30 61 32 72 32 171 0 99 -2 110 -32 171 -39 79 -102 140 -181 177 -47 22 -74 27 -152 30 -82 2 -103 -1 -154 -22z m209 -104 c33 -18 56 -39 67 -62 68 -139 72 -151 62 -168 -6 -9 -7 -28 -3 -42 22 -76 -4 -147 -63 -174 -18 -9 -44 -25 -58 -36 -81 -65 -231 -10 -259 96 -17 64 -8 192 18 244 12 25 30 61 39 80 17 34 98 90 132 90 8 0 38 -13 65 -28z"/>
 </g>
<g id="layer106" fill="#fefefe" stroke="none">
 <path d="M324 760 c-109 -23 -208 -103 -258 -210 -26 -57 -30 -76 -30 -150 0 -74 4 -93 30 -150 39 -83 101 -145 184 -184 57 -26 76 -30 150 -30 74 0 93 4 150 30 83 39 145 101 184 184 26 57 30 76 30 150 0 74 -4 93 -30 150 -58 123 -173 204 -304 214 -36 3 -84 1 -106 -4z m129 -96 c59 -30 107 -88 107 -129 0 -9 8 -27 19 -40 15 -19 18 -43 19 -122 2 -113 -16 -157 -65 -169 -15 -3 -32 -12 -38 -18 -39 -46 -122 -60 -188 -32 -39 16 -82 61 -96 99 -6 15 -10 70 -10 122 1 77 5 100 20 119 11 13 19 32 19 41 0 57 95 143 158 145 13 0 37 -7 55 -16z"/>
 </g>

</svg>